# Blender 4.0.2
# www.blender.org
mtllib river.mtl
o Cube
v 3.362593 0.133546 -3.362593
v 3.362593 -0.133546 -3.362593
v 3.362593 0.133546 3.362593
v 3.362593 -0.133546 3.362593
v -3.362593 0.133546 -3.362593
v -3.362593 -0.133546 -3.362593
v -3.362593 0.133546 3.362593
v -3.362593 -0.133546 3.362593
vn -0.0000 1.0000 -0.0000
vn -0.0000 -0.0000 1.0000
vn -1.0000 -0.0000 -0.0000
vn -0.0000 -1.0000 -0.0000
vn 1.0000 -0.0000 -0.0000
vn -0.0000 -0.0000 -1.0000
vt -0.005555 -0.005555
vt 1.001649 -0.005555
vt 1.001649 1.001649
vt -0.005555 1.001649
vt 1.062500 0.531059
vt 1.075981 0.531059
vt 1.075981 0.544540
vt 1.062500 0.544540
vt 1.062500 0.490616
vt 1.075981 0.490616
vt 1.075981 0.504097
vt 1.062500 0.504097
vt 1.049019 0.517578
vt 1.062500 0.517578
vt 1.049019 0.531059
vt 1.075981 0.517578
s 0
usemtl Material
f 1/1/1 5/2/1 7/3/1 3/4/1
f 4/5/2 3/6/2 7/7/2 8/8/2
f 8/9/3 7/10/3 5/11/3 6/12/3
f 6/13/4 2/14/4 4/5/4 8/15/4
f 2/14/5 1/16/5 3/6/5 4/5/5
f 6/12/6 5/11/6 1/16/6 2/14/6
